<?xml version="1.0" encoding="UTF-8"?>
<svg width="16px" height="13px" viewBox="0 0 16 13" version="1.1" xmlns="http://www.w3.org/2000/svg" xmlns:xlink="http://www.w3.org/1999/xlink">
    <!-- Generator: Sketch 61 (89581) - https://sketch.com -->
    <title>Group</title>
    <desc>Created with Sketch.</desc>
    <defs>
        <rect id="path-1" x="0" y="0" width="1440" height="200"></rect>
    </defs>
    <g id="List" stroke="none" stroke-width="1" fill="none" fill-rule="evenodd">
        <g id="oos/list/filters-copy-2" transform="translate(-112.000000, -203.000000)">
            <g id="DSC02361" transform="translate(0.000000, 75.000000)">
                <mask id="mask-2" fill="white">
                    <use xlink:href="#path-1"></use>
                </mask>
                <g id="Mask"></g>
            </g>
            <g id="filters" transform="translate(100.000000, 190.000000)">
                <rect id="Rectangle-Copy" stroke="#E5E5E5" x="0.5" y="0.5" width="199" height="39" rx="3"></rect>
                <g id="Group" transform="translate(12.158854, 13.296875)" fill="#000000" fill-rule="nonzero">
                    <path d="M10.1953125,0 C10.9765625,0 11.6484375,0.5 11.8984375,1.1875 L11.8984375,1.1875 L14.4140625,1.1875 C14.7421875,1.1875 15.015625,1.46875 15.015625,1.828125 C15.015625,2.1796875 14.7421875,2.4609375 14.4140625,2.4609375 L14.4140625,2.4609375 L11.8984375,2.4609375 C11.640625,3.1484375 10.96875,3.640625 10.1953125,3.640625 C9.4140625,3.640625 8.75,3.1484375 8.4921875,2.4609375 L8.4921875,2.4609375 L0.6328125,2.4609375 C0.28125,2.4609375 5.32907052e-15,2.171875 5.32907052e-15,1.828125 C5.32907052e-15,1.46875 0.28125,1.1875 0.6328125,1.1875 L0.6328125,1.1875 L8.484375,1.1875 C8.7421875,0.5 9.4140625,0 10.1953125,0 Z M10.1953125,0.9375 C9.703125,0.9375 9.3125,1.3203125 9.3125,1.8203125 C9.3125,2.3125 9.703125,2.703125 10.1953125,2.703125 C10.6953125,2.703125 11.0703125,2.3125 11.0703125,1.8203125 C11.0703125,1.3203125 10.6953125,0.9375 10.1953125,0.9375 Z" id="Combined-Shape"></path>
                    <path d="M4.9140625,4.5546875 C5.6875,4.5546875 6.359375,5.046875 6.6171875,5.734375 L6.6171875,5.734375 L14.390625,5.734375 C14.7421875,5.734375 15.015625,6.015625 15.015625,6.3671875 C15.015625,6.71875 14.7421875,7 14.390625,7 L14.390625,7 L6.6171875,7 C6.359375,7.6953125 5.6875,8.1953125 4.9140625,8.1953125 C4.1328125,8.1953125 3.4609375,7.6953125 3.203125,7 L3.203125,7 L0.6015625,7 C0.28125,7 5.32907052e-15,6.71875 5.32907052e-15,6.3671875 C5.32907052e-15,6.015625 0.28125,5.734375 0.6015625,5.734375 L0.6015625,5.734375 L3.203125,5.734375 C3.4609375,5.046875 4.1328125,4.5546875 4.9140625,4.5546875 Z M4.9140625,5.4921875 C4.421875,5.4921875 4.03125,5.875 4.03125,6.3671875 C4.03125,6.859375 4.421875,7.25 4.9140625,7.25 C5.40625,7.25 5.7890625,6.859375 5.7890625,6.3671875 C5.7890625,5.875 5.40625,5.4921875 4.9140625,5.4921875 Z" id="Combined-Shape"></path>
                    <path d="M10.1953125,9.09375 C10.9765625,9.09375 11.640625,9.59375 11.8984375,10.28125 L11.8984375,10.28125 L14.4140625,10.28125 C14.7421875,10.28125 15.015625,10.5625 15.015625,10.9140625 C15.015625,11.265625 14.7421875,11.546875 14.4140625,11.546875 L14.4140625,11.546875 L11.8984375,11.546875 C11.640625,12.2421875 10.9765625,12.734375 10.1953125,12.734375 C9.4140625,12.734375 8.7421875,12.2421875 8.484375,11.546875 L8.484375,11.546875 L0.6328125,11.546875 C0.28125,11.546875 5.32907052e-15,11.265625 5.32907052e-15,10.9140625 C5.32907052e-15,10.5625 0.28125,10.28125 0.6328125,10.28125 L0.6328125,10.28125 L8.484375,10.28125 C8.75,9.59375 9.4140625,9.09375 10.1953125,9.09375 Z M10.1953125,10.03125 C9.703125,10.03125 9.3125,10.4140625 9.3125,10.9140625 C9.3125,11.40625 9.703125,11.796875 10.1953125,11.796875 C10.6953125,11.796875 11.0703125,11.40625 11.0703125,10.9140625 C11.0703125,10.4140625 10.6953125,10.03125 10.1953125,10.03125 Z" id="Combined-Shape"></path>
                </g>
            </g>
        </g>
    </g>
</svg>
