<?xml version="1.0" encoding="UTF-8"?>
<svg width="30px" height="36px" viewBox="0 0 30 36" version="1.1" xmlns="http://www.w3.org/2000/svg" xmlns:xlink="http://www.w3.org/1999/xlink">
    <g id="Page-1" stroke="none" stroke-width="1" fill="none" fill-rule="evenodd">
        <g id="oos/item/description" transform="translate(-860.000000, -487.000000)">
            <g id="item-desc" transform="translate(0.000000, 444.000000)">
                <rect id="Rectangle" stroke="#E5E5E5" x="0.5" y="0.5" width="1441" height="147"></rect>
                <g id="3" transform="translate(720.000000, 1.000000)">
                    <rect id="Rectangle-Copy" fill="#E9E9E9" opacity="0" x="0" y="0" width="310" height="147"></rect>
                    <g id="Group-3" transform="translate(140.732422, 42.433594)" fill="#000000" fill-rule="nonzero">
                        <g id="Group-4">
                            <path d="M14.2578125,0 C14.7265625,0 15.1171875,0.1171875 15.5859375,0.2734375 C19.0234375,1.484375 22.6757812,2.96875 26.0742188,4.2578125 C28.0273438,5 28.5351562,5.68359375 28.5351562,7.71484375 L28.5351562,7.71484375 L28.5351562,21.5429688 C28.5351562,27.1875 25.4882812,29.0234375 15.46875,35.15625 C15.15625,35.3515625 14.6875,35.5664062 14.2578125,35.5664062 C13.8476562,35.5664062 13.3789062,35.3515625 13.0664062,35.15625 C3.125,28.8867188 0,27.1875 0,21.5429688 L0,21.5429688 L0,7.71484375 C0,5.68359375 0.5078125,4.98046875 2.4609375,4.2578125 C5.859375,2.96875 9.55078125,1.5625 12.9492188,0.2734375 C13.4179688,0.1171875 13.8085938,0 14.2578125,0 Z M14.2578125,0.99609375 C14.0039062,0.99609375 13.5742188,1.11328125 13.125,1.30859375 C11.25,2.01171875 4.19921875,4.7265625 2.34375,5.44921875 C1.328125,5.859375 1.0546875,6.38671875 1.0546875,7.83203125 L1.0546875,7.83203125 L1.0546875,21.4257812 C1.0546875,26.8945312 4.7265625,28.4375 13.3203125,34.0234375 C13.5546875,34.1796875 13.9453125,34.4140625 14.2578125,34.4140625 C14.5898438,34.4140625 14.9804688,34.1796875 15.2148438,34.0234375 C23.7695312,28.3789062 27.4804688,26.8945312 27.4804688,21.4257812 L27.4804688,21.4257812 L27.4804688,7.83203125 C27.4804688,6.38671875 27.2070312,5.859375 26.1914062,5.44921875 C24.3359375,4.74609375 17.2851562,2.01171875 15.4101562,1.30859375 C14.9414062,1.1328125 14.53125,0.99609375 14.2578125,0.99609375 Z" id="Combined-Shape"></path>
                            <path d="M12.2070312,26.4453125 C12.421875,26.4453125 12.6367188,26.3671875 12.7734375,26.1328125 L23.125,10.15625 C23.203125,10.0195312 23.2617188,9.86328125 23.2617188,9.7265625 C23.2617188,9.375 22.9492188,9.140625 22.6757812,9.140625 C22.4609375,9.140625 22.265625,9.2578125 22.1289062,9.47265625 L12.1875,24.8632812 L6.40625,18.2226562 C6.25,18.0273438 6.09375,17.9492188 5.859375,17.9492188 C5.5859375,17.9492188 5.2734375,18.1640625 5.2734375,18.5546875 C5.2734375,18.7304688 5.3515625,18.90625 5.46875,19.0625 L11.6210938,26.1523438 C11.8359375,26.3867188 11.9921875,26.4453125 12.2070312,26.4453125 Z" id="Path"></path>
                        </g>
                    </g>
                </g>
            </g>
        </g>
    </g>
</svg>