<?xml version="1.0" encoding="UTF-8"?>
<svg width="38px" height="39px" viewBox="0 0 38 39" version="1.1" xmlns="http://www.w3.org/2000/svg" xmlns:xlink="http://www.w3.org/1999/xlink">
    <g id="Page-1" stroke="none" stroke-width="1" fill="none" fill-rule="evenodd">
        <g id="oos/item/description" transform="translate(-546.000000, -485.000000)">
            <g id="item-desc" transform="translate(0.000000, 444.000000)">
                <rect id="Rectangle" stroke="#E5E5E5" x="0.5" y="0.5" width="1441" height="147"></rect>
                <g id="2" transform="translate(410.000000, 1.000000)">
                    <rect id="Rectangle" fill="#E9E9E9" opacity="0" x="0" y="0" width="310" height="147"></rect>
                    <g id="Group-2" transform="translate(136.982422, 40.431641)" fill="#000000" fill-rule="nonzero">
                        <path d="M19.6740631,0.387752757 L19.8828125,0.498046875 L34.8828125,8.79882813 C35.5357143,9.16155134 35.9696867,9.65900032 36.0283516,10.3693641 L36.0351562,10.5371094 L36.0351562,26.8066406 C36.0351562,28.1425781 35.6473633,28.8968262 34.5201196,29.5717529 L34.3359375,29.6777344 L19.21875,37.9003906 C18.4388951,38.3356585 17.7432438,38.3330676 17.0066936,37.9864449 L16.8359375,37.9003906 L1.69921875,29.6777344 C0.493164062,29.0097656 0.0450683594,28.288916 0.00327392578,27.0128174 L0,26.8066406 L0,10.5371094 C0,9.79352679 0.404177296,9.26887357 1.00924033,8.88496065 L1.15234375,8.79882813 L16.171875,0.498046875 C17.2748162,-0.126953125 18.5507677,-0.163717831 19.6740631,0.387752757 Z M1.1328125,10.8496094 L1.1328125,26.7285156 C1.1328125,27.7304688 1.29145508,28.2212402 2.4292749,28.8706543 L2.6171875,28.9746094 L17.4804688,36.9824219 L17.4804688,19.7167969 L1.1328125,10.8496094 Z M34.9023438,10.8496094 L18.5742188,19.7167969 L18.5742188,36.9824219 L33.4375,28.9746094 C34.6621094,28.3066406 34.8819824,27.8325684 34.9009082,26.8825684 L34.9023438,26.7285156 L34.9023438,10.8496094 Z M9.31640625,5.45898437 L1.4453125,9.81445312 L18.0273438,18.7792969 L25.9765625,14.4628906 L9.31640625,5.45898437 Z M19.1210938,1.25976562 C18.4179688,0.869140625 17.6367188,0.869140625 16.9335938,1.25976562 L16.9335938,1.25976562 L10.4296875,4.85351562 L27.0898438,13.8769531 L34.5898438,9.81445312 Z" id="Combined-Shape"></path>
                    </g>
                </g>
            </g>
        </g>
    </g>
</svg>