<?xml version="1.0" encoding="UTF-8"?>
<svg width="40px" height="30px" viewBox="0 0 40 30" version="1.1" xmlns="http://www.w3.org/2000/svg" xmlns:xlink="http://www.w3.org/1999/xlink">
    <g id="Page-1" stroke="none" stroke-width="1" fill="none" fill-rule="evenodd">
        <g id="oos/item/description" transform="translate(-235.000000, -490.000000)">
            <g id="item-desc" transform="translate(0.000000, 444.000000)">
                <rect id="Rectangle" stroke="#E5E5E5" x="0.5" y="0.5" width="1441" height="147"></rect>
                <g id="1" transform="translate(100.000000, 1.000000)">
                    <rect id="Rectangle" fill="#E9E9E9" opacity="0" x="0" y="0" width="310" height="147"></rect>
                    <g id="Group" transform="translate(135.419922, 45.011719)" fill="#000000" fill-rule="nonzero">
                        <path d="M34.3359375,0 C37.3954814,0 39.0498025,1.6086103 39.1369904,4.55598015 L39.140625,4.8046875 L39.140625,24.6875 C39.140625,27.6900338 37.5689942,29.3982834 34.5876432,29.488428 L34.3359375,29.4921875 L4.8046875,29.4921875 C1.74514358,29.4921875 0.0908224525,27.9205567 0.00363456385,24.9392057 L0,24.6875 L0,4.8046875 C0,1.74514358 1.57163075,0.0908224525 4.55298181,0.00363456385 L4.8046875,0 L34.3359375,0 Z M38.0859375,10.1757812 L1.0546875,10.1757812 L1.0546875,24.6289062 C1.0546875,27.0507812 2.28277206,28.3545494 4.61464345,28.4336698 L4.84375,28.4375 L34.296875,28.4375 C36.6241455,28.4375 37.9982758,27.2094154 38.0818862,24.8597872 L38.0859375,24.6289062 L38.0859375,10.1757812 Z M11.7578125,15.0585938 C12.7783203,15.0585938 13.4991699,15.710791 13.5687036,16.6635278 L13.5742188,16.8164062 L13.5742188,20.2539062 C13.5742188,21.2373047 12.9043945,21.9386719 11.9164038,22.0063501 L11.7578125,22.0117188 L7.24609375,22.0117188 C6.22558594,22.0117188 5.52236328,21.3595215 5.45459229,20.4067847 L5.44921875,20.2539062 L5.44921875,16.8164062 C5.44921875,15.8330078 6.10141602,15.1316406 7.08764404,15.0639624 L7.24609375,15.0585938 L11.7578125,15.0585938 Z M34.296875,1.0546875 L4.84375,1.0546875 C2.36328125,1.0546875 1.0546875,2.36328125 1.0546875,4.84375 L1.0546875,4.84375 L1.0546875,6.19140625 L38.0859375,6.19140625 L38.0859375,4.84375 C38.0859375,2.36328125 36.6992188,1.0546875 34.296875,1.0546875 L34.296875,1.0546875 Z" id="Combined-Shape"></path>
                    </g>
                </g>
            </g>
        </g>
    </g>
</svg>