
<svg width="85px" height="33px" viewBox="0 0 85 33" version="1.1" xmlns="http://www.w3.org/2000/svg" xmlns:xlink="http://www.w3.org/1999/xlink">
    <g id="Page-1" stroke="none" stroke-width="1" fill="none" fill-rule="evenodd">
        <g id="oos_drops_item" transform="translate(-1254.000000, -2323.000000)">
            <g id="Group-3" transform="translate(0.000000, 1699.000000)">
                <g id="logo-copy" transform="translate(1255.000000, 624.000000)">
                    <path d="M48.8805115,11.1653656 L51.1419592,11.1653656 L51.1419592,32 L48.9852081,32 L48.9852081,28.0005878 L48.9223901,28.0005878 C48.0848169,29.3267453 46.988992,30.3597525 45.6349152,31.0996088 C44.2808383,31.839465 42.7313278,32.2093933 40.9863837,32.2093933 C39.5904282,32.2093933 38.2712503,31.9581213 37.0288501,31.4555774 C35.7864499,30.9530334 34.7045844,30.2550559 33.7832538,29.3616443 C32.8619232,28.4682327 32.1325366,27.3654282 31.5950937,26.05323 C31.0576508,24.7410318 30.7889294,23.3101776 30.7889294,21.7606671 C30.7889294,19.7504913 31.2146957,17.9252795 32.0662286,16.285032 C32.9177615,14.6447846 34.1182831,13.346546 35.6677936,12.3903165 C37.2173041,11.4340869 38.9622482,10.9559723 40.9026263,10.9559723 C42.5358942,10.9559723 44.043526,11.3328802 45.4255219,12.0866962 C46.8075177,12.8405121 47.9312619,13.8944583 48.7967542,15.2485352 L48.8805115,15.2485352 L48.8805115,11.1653656 Z M41.132959,30.0735815 C42.1799255,30.0735815 43.1780338,29.8711679 44.1272833,29.4663409 C45.0765329,29.061514 45.9071265,28.5031317 46.6190637,27.7911945 C47.331001,27.0792572 47.8998529,26.2032953 48.3256192,25.1633084 C48.7513855,24.1233215 48.9642688,22.9960876 48.9642688,21.7816064 C48.9642688,20.1902173 48.6327295,18.7349338 47.9696506,17.4157559 C47.3065717,16.0965781 46.3782614,15.0496115 45.1847195,14.2748563 C43.9911777,13.500101 42.6475705,13.1127234 41.1538983,13.1127234 C40.0510934,13.1127234 39.0111069,13.3186267 38.033938,13.7304337 C37.0567691,14.1422406 36.2017465,14.7180722 35.4688699,15.4579285 C34.7359933,16.1977847 34.1566717,17.1156256 33.7309055,18.2114505 C33.3051392,19.3072754 33.0922559,20.4973276 33.0922559,21.7816064 C33.0922559,23.3311169 33.4272852,24.7375421 34.0973438,26.0008817 C34.7674023,27.2642212 35.7166519,28.2588394 36.9450928,28.9847363 C38.1735336,29.7106332 39.5694888,30.0735815 41.132959,30.0735815 Z M67.2543103,10.9559723 C67.7568542,10.9559723 68.1267825,10.962952 68.3640949,10.9769116 L68.3640949,13.4896313 C67.7219553,13.433793 67.2822293,13.405874 67.044917,13.405874 C64.9370242,13.405874 63.2479184,14.1841193 61.9775989,15.7406094 C60.7072794,17.2970996 60.0721198,19.3107654 60.0721198,21.7816064 L60.0721198,32 L57.810672,32 L57.810672,11.1653656 L60.0721198,11.1653656 L60.0721198,15.1228992 L60.1768164,15.1228992 C60.944592,13.7967416 61.9392102,12.7707144 63.1606711,12.0448175 C64.382132,11.3189206 65.7466785,10.9559723 67.2543103,10.9559723 Z M78.0690106,32.2093933 C76.2542685,32.2093933 74.95952,31.6963797 74.1847647,30.6703525 C73.4100095,29.6443253 73.0226318,28.1262238 73.0226318,26.116048 L73.0226318,13.2592987 L70.2586401,13.2592987 L70.2586401,11.1653656 L73.0226318,11.1653656 L73.0226318,3.87847839 L75.2840796,3.60626709 L75.2840796,11.1653656 L82.8850568,11.1653656 L82.8850568,13.2592987 L75.2840796,13.2592987 L75.2840796,25.550686 C75.2840796,27.1001965 75.4969629,28.2344104 75.9227292,28.9533273 C76.3484955,29.6722443 77.1476801,30.0317029 78.3202826,30.0317029 C79.5766425,30.0317029 80.8888406,29.6338556 82.2568768,28.838161 L82.8431781,30.8692761 C81.3774249,31.7626877 79.7860358,32.2093933 78.0690106,32.2093933 Z" id="art" stroke="#000000" stroke-width="0.5" fill="#FFFFFF"></path>
                    <path d="M18.2273938,0.42348877 L20.4888416,0.42348877 L20.4888416,32 L18.2902118,32 L18.2902118,28.0424664 L18.2064545,28.0424664 C17.6620319,28.9079587 17.0059329,29.6478153 16.2381573,30.2620355 C15.4703818,30.8762558 14.5804602,31.3543707 13.5683926,31.6963797 C12.5563251,32.0383887 11.4709695,32.2093933 10.3123267,32.2093933 C8.91637115,32.2093933 7.59719329,31.9581213 6.35479309,31.4555774 C5.11239289,30.9530334 4.03052734,30.2550559 3.10919678,29.3616443 C2.18786621,28.4682327 1.45847962,27.3654282 0.921036682,26.05323 C0.383593745,24.7410318 0.114872437,23.3101776 0.114872437,21.7606671 C0.114872437,20.2530353 0.366144409,18.8361404 0.868688354,17.5099829 C1.3712323,16.1838254 2.06223022,15.0391418 2.94168213,14.0759326 C3.82113403,13.1127234 4.88903992,12.3519278 6.14539978,11.7935455 C7.40175964,11.2351633 8.76281616,10.9559723 10.2285693,10.9559723 C11.8618372,10.9559723 13.369469,11.3328802 14.7514648,12.0866962 C16.1334607,12.8405121 17.2572049,13.8944583 18.1226971,15.2485352 L18.2273938,15.2485352 L18.2273938,0.42348877 Z M10.458902,30.0735815 C11.5058685,30.0735815 12.5039768,29.8711679 13.4532263,29.4663409 C14.4024759,29.061514 15.2330695,28.5031317 15.9450067,27.7911945 C16.656944,27.0792572 17.2257959,26.2032953 17.6515622,25.1633084 C18.0773285,24.1233215 18.2902118,22.9960876 18.2902118,21.7816064 C18.2902118,20.5950442 18.0947781,19.4678104 17.7039105,18.3999045 C17.3130429,17.3319986 16.77909,16.410668 16.1020517,15.6359128 C15.4250134,14.8611575 14.5979099,14.2469373 13.620741,13.7932516 C12.6435721,13.339566 11.5966055,13.1127234 10.4798413,13.1127234 C9.37703643,13.1127234 8.33704987,13.3186267 7.35988098,13.7304337 C6.38271209,14.1422406 5.52768951,14.7180722 4.79481293,15.4579285 C4.06193634,16.1977847 3.48261474,17.1156256 3.05684845,18.2114505 C2.63108216,19.3072754 2.41819885,20.4973276 2.41819885,21.7816064 C2.41819885,23.3311169 2.75322815,24.7375421 3.42328674,26.0008817 C4.09334534,27.2642212 5.0425949,28.2588394 6.27103577,28.9847363 C7.49947663,29.7106332 8.89543182,30.0735815 10.458902,30.0735815 Z" id="d" stroke="#000000" stroke-width="0.5" fill="#DBD8D8"></path>
                    <rect id="Rectangle" fill="#FFFFFF" x="24.40625" y="0.2" width="1.640625" height="13.73125"></rect>
                </g>
            </g>
        </g>
    </g>
</svg>
