<?xml version="1.0" encoding="UTF-8"?>
<svg width="28px" height="37px" viewBox="0 0 28 37" version="1.1" xmlns="http://www.w3.org/2000/svg" xmlns:xlink="http://www.w3.org/1999/xlink">
    <!-- Generator: Sketch 61 (89581) - https://sketch.com -->
    <title>lock</title>
    <desc>Created with Sketch.</desc>
    <defs>
        <rect id="path-1" x="0" y="0" width="375" height="455"></rect>
    </defs>
    <g id="Mobile" stroke="none" stroke-width="1" fill="none" fill-rule="evenodd">
        <g id="oos_main_mobile-copy" transform="translate(-24.000000, -1329.000000)">
            <g id="Group-2" transform="translate(0.000000, 966.000000)">
                <g id="Group">
                    <mask id="mask-2" fill="white">
                        <use xlink:href="#path-1"></use>
                    </mask>
                    <use id="Mask" fill="#000000" xlink:href="#path-1"></use>
                    <g opacity="0.07" mask="url(#mask-2)" font-family="CircularStd-Book, Circular Std" font-size="38.0591202" font-weight="300">
                        <g transform="translate(-1.000000, -139.000000)">
                            <text id="ø-ø-ø-ø-ø-ø-ø-ø-ø-ø-copy-17">
                                <tspan x="8.66595781" y="498.938233" fill="#FFFFFF">ø ø ø ø ø ø ø ø ø ø ø ø ø ø ø ø ø ø ø ø ø ø ø ø ø ø ø ø ø ø ø ø ø ø ø ø ø ø ø ø ø ø ø ø ø ø ø ø</tspan>
                            </text>
                            <text id="ø-ø-ø-ø-ø-ø-ø-ø-ø-ø-copy-18">
                                <tspan x="8.66595781" y="547.146452" fill="#FFFFFF">ø ø ø ø ø ø ø ø ø ø ø ø ø ø ø ø ø ø ø ø ø ø ø ø ø ø ø ø ø ø ø ø ø ø ø ø ø ø ø ø ø ø ø ø ø ø ø ø</tspan>
                            </text>
                            <text id="ø-ø-ø-ø-ø-ø-ø-ø-ø-ø-copy-25">
                                <tspan x="21.727425" y="522.619464" fill="#FFFFFF">ø ø ø ø ø ø ø ø ø ø ø ø ø ø ø ø ø ø ø ø ø ø ø ø ø ø ø ø ø ø ø ø ø ø ø ø ø ø ø ø ø ø ø ø ø ø ø ø</tspan>
                            </text>
                            <text id="ø-ø-ø-ø-ø-ø-ø-ø-ø-ø-copy-26">
                                <tspan x="21.727425" y="570.827683" fill="#FFFFFF">ø ø ø ø ø ø ø ø ø ø ø ø ø ø ø ø ø ø ø ø ø ø ø ø ø ø ø ø ø ø ø ø ø ø ø ø ø ø ø ø ø ø ø ø ø ø ø ø</tspan>
                            </text>
                        </g>
                    </g>
                </g>
                <g id="lock" transform="translate(25.000000, 364.000000)" fill="#FFFFFF" fill-rule="nonzero" stroke="#000000">
                    <path d="M15.8436214,0 L10.0823045,0 C6.90556283,0 4.32098765,2.58457518 4.32098765,5.76131687 L4.32098765,12.962963 L2.88065844,12.962963 C1.29193588,12.962963 0,14.2548988 0,15.8436214 L0,31.6872428 C0,33.2759654 1.29193588,34.5679012 2.88065844,34.5679012 L23.0452675,34.5679012 C24.63399,34.5679012 25.9259259,33.2759654 25.9259259,31.6872428 L25.9259259,15.8436214 C25.9259259,14.2548988 24.63399,12.962963 23.0452675,12.962963 L21.6049383,12.962963 L21.6049383,5.76131687 C21.6049383,2.58457518 19.0203631,0 15.8436214,0 Z M7.20164609,5.76131687 C7.20164609,4.17259432 8.49358197,2.88065844 10.0823045,2.88065844 L15.8436214,2.88065844 C17.432344,2.88065844 18.7242798,4.17259432 18.7242798,5.76131687 L18.7242798,12.962963 L7.20164609,12.962963 L7.20164609,5.76131687 Z M23.0452675,31.6872428 L2.88065844,31.6872428 L2.87925186,15.8436214 L23.0452675,15.8436214 L23.0452675,31.6872428 Z" id="Shape"></path>
                    <path d="M12.962963,19.4041152 C10.5798792,19.4041152 8.64197531,21.3420191 8.64197531,23.7251029 C8.64197531,25.6025242 10.4332573,27.895749 12.962963,27.895749 C15.4926686,27.895749 17.2839506,25.6025242 17.2839506,23.7251029 C17.2839506,21.3420191 15.3460467,19.4041152 12.962963,19.4041152 Z M12.962963,25.1654321 C12.1686017,25.1654321 11.5226337,24.5194642 11.5226337,23.7251029 C11.5226337,22.9307416 12.1686017,22.2847737 12.962963,22.2847737 C13.7573242,22.2847737 14.4032922,22.9307416 14.4032922,23.7251029 C14.4032922,24.5194642 13.7573242,25.1654321 12.962963,25.1654321 Z" id="Shape"></path>
                </g>
            </g>
        </g>
    </g>
</svg>
