
<svg width="16px" height="17px" viewBox="0 0 16 17" version="1.1" xmlns="http://www.w3.org/2000/svg" xmlns:xlink="http://www.w3.org/1999/xlink">
    <g id="Page-1" stroke="none" stroke-width="1" fill="none" fill-rule="evenodd">
        <g id="oos_main" transform="translate(-1258.000000, -41.000000)" fill="#000000" fill-rule="nonzero">
            <g id="Group-2">
                <g id="search" transform="translate(1258.000000, 41.556349)">
                    <path d="M15.756,14.5647719 L11.8822857,10.6065965 C12.8782857,9.44336842 13.424,7.97978947 13.424,6.45614035 C13.424,2.8962807 10.476,0 6.85257143,0 C3.22914286,0 0.281142857,2.8962807 0.281142857,6.45614035 C0.281142857,10.016 3.22914286,12.9122807 6.85257143,12.9122807 C8.21285714,12.9122807 9.50914286,12.509193 10.6174286,11.744 L14.5205714,15.7322105 L15.756,14.5647719 Z M6.85257143,1.68421053 C9.53085714,1.68421053 11.7097143,3.82484211 11.7097143,6.45614035 C11.7097143,9.0874386 9.53085714,11.2280702 6.85257143,11.2280702 C4.17428571,11.2280702 1.99542857,9.0874386 1.99542857,6.45614035 C1.99542857,3.82484211 4.17428571,1.68421053 6.85257143,1.68421053 Z" id="Shape"></path>
                </g>
            </g>
        </g>
    </g>
</svg>