<?xml version="1.0" encoding="UTF-8"?>
<svg width="30px" height="39px" viewBox="0 0 30 39" version="1.1" xmlns="http://www.w3.org/2000/svg" xmlns:xlink="http://www.w3.org/1999/xlink">
    <!-- Generator: Sketch 61 (89581) - https://sketch.com -->
    <title>security</title>
    <desc>Created with Sketch.</desc>
    <defs>
        <rect id="path-1" x="0" y="0" width="375" height="455"></rect>
    </defs>
    <g id="Mobile" stroke="none" stroke-width="1" fill="none" fill-rule="evenodd">
        <g id="oos_main_mobile-copy" transform="translate(-25.000000, -1185.000000)">
            <g id="Group-2" transform="translate(0.000000, 966.000000)">
                <g id="Group">
                    <mask id="mask-2" fill="white">
                        <use xlink:href="#path-1"></use>
                    </mask>
                    <use id="Mask" fill="#000000" xlink:href="#path-1"></use>
                    <g opacity="0.07" mask="url(#mask-2)" font-family="CircularStd-Book, Circular Std" font-size="38.0591202" font-weight="300">
                        <g transform="translate(-1.000000, -139.000000)">
                            <text id="ø-ø-ø-ø-ø-ø-ø-ø-ø-ø-copy-15">
                                <tspan x="9.06595781" y="400.830279" fill="#FFFFFF">ø ø ø ø ø ø ø ø ø ø ø ø ø ø ø ø ø ø ø ø ø ø ø ø ø ø ø ø ø ø ø ø ø ø ø ø ø ø ø ø ø ø ø ø ø ø ø ø</tspan>
                            </text>
                            <text id="ø-ø-ø-ø-ø-ø-ø-ø-ø-ø-copy-13">
                                <tspan x="1.05413377" y="377.149049" fill="#FFFFFF">ø ø ø ø ø ø ø ø ø ø ø ø ø ø ø ø ø ø ø ø ø ø ø ø ø ø ø ø ø ø ø ø ø ø ø ø ø ø ø ø ø ø ø ø ø ø ø ø</tspan>
                            </text>
                            <text id="ø-ø-ø-ø-ø-ø-ø-ø-ø-ø-copy-23">
                                <tspan x="21.727425" y="425.357268" fill="#FFFFFF">ø ø ø ø ø ø ø ø ø ø ø ø ø ø ø ø ø ø ø ø ø ø ø ø ø ø ø ø ø ø ø ø ø ø ø ø ø ø ø ø ø ø ø ø ø ø ø ø</tspan>
                            </text>
                            <text id="ø-ø-ø-ø-ø-ø-ø-ø-ø-ø-copy-14">
                                <tspan x="14.1156009" y="352.62206" fill="#FFFFFF">ø ø ø ø ø ø ø ø ø ø ø ø ø ø ø ø ø ø ø ø ø ø ø ø ø ø ø ø ø ø ø ø ø ø ø ø ø ø ø ø ø ø ø ø ø ø ø ø</tspan>
                            </text>
                        </g>
                    </g>
                </g>
                <g id="security" transform="translate(25.000000, 219.000000)" fill="#FFFFFF" fill-rule="nonzero">
                    <path d="M29.5545269,7.78213295 L15.1087597,0.0846800342 C14.894451,-0.0296981507 14.6376016,-0.0280929452 14.4248984,0.0886932534 L0.37885274,7.78614616 C0.148490959,7.91256421 0.00561857877,8.15416315 0.00561857877,8.41703229 L0.00561857877,18.4718804 C0.0140464726,26.7372111 4.91103914,34.2147368 12.4840807,37.5260862 L14.4337275,38.3756957 C14.61593,38.4551584 14.8234161,38.4555597 15.0060199,38.3764983 L17.2028842,37.4277611 C24.9163902,34.1882491 29.9345837,26.6384846 29.9353864,18.2724208 L29.9353864,8.41703229 C29.9353864,8.15135384 29.7889019,7.90694568 29.5545269,7.78213295 L29.5545269,7.78213295 Z M28.4970302,18.2724208 C28.4954249,26.0617776 23.8219714,33.0902183 16.6398224,36.1045859 L16.6350064,36.1069938 L14.7218804,36.9329249 L13.0595837,36.2077269 C6.01027397,33.1255351 1.45159993,26.1657214 1.44357339,18.4718804 L1.44357339,8.84284027 L14.7752568,1.53627997 L28.4970302,8.8480576 L28.4970302,18.2724208 Z" id="Shape"></path>
                    <path d="M9.46931188,18.0055383 C9.21125856,17.703339 8.75735764,17.667621 8.45515839,17.9256742 C8.15295914,18.1833262 8.11724096,18.6376284 8.37529428,18.9394264 L12.1742562,23.3881367 C12.4278949,23.6851188 12.8721639,23.7256529 13.1747646,23.479238 L22.0224208,16.281036 C22.3306399,16.0306079 22.377194,15.5775097 22.1263645,15.2692905 C21.8759364,14.9614726 21.4228382,14.9145174 21.114619,15.1653467 L12.8119649,21.919681 L9.46931188,18.0055383 Z" id="Path"></path>
                </g>
            </g>
        </g>
    </g>
</svg>
