<?xml version="1.0" encoding="UTF-8"?>
<svg width="48px" height="38px" viewBox="0 0 48 38" version="1.1" xmlns="http://www.w3.org/2000/svg" xmlns:xlink="http://www.w3.org/1999/xlink">
    <!-- Generator: Sketch 61 (89581) - https://sketch.com -->
    <title>Combined Shape</title>
    <desc>Created with Sketch.</desc>
    <g id="Page-1" stroke="none" stroke-width="1" fill="none" fill-rule="evenodd">
        <g id="oos/item/description" transform="translate(-1161.000000, -487.000000)">
            <g id="item-desc" transform="translate(0.000000, 444.000000)">
                <rect id="Rectangle" stroke="#E5E5E5" x="0.5" y="0.5" width="1441" height="147"></rect>
                <g id="4" transform="translate(1030.000000, 1.000000)">
                    <rect id="Rectangle-Copy-2" fill="#E9E9E9" opacity="0" x="0" y="0" width="310" height="147"></rect>
                    <path d="M162.666016,42.21875 C166.806641,42.21875 169.072266,44.484375 169.072266,48.6054688 L169.072266,48.6054688 L169.072266,51.8671875 L173.076172,51.8671875 C176.376953,51.8671875 178.212891,53.703125 178.212891,57.0039062 L178.212891,57.0039062 L178.212891,69.5234375 C178.212891,72.84375 176.376953,74.640625 173.076172,74.640625 L173.076172,74.640625 L171.513672,74.640625 L171.513672,79.0546875 C171.513672,79.5039062 171.259766,79.8164062 170.849609,79.8164062 C170.576172,79.8164062 170.322266,79.640625 170.068359,79.40625 L170.068359,79.40625 L164.482422,74.640625 L153.896484,74.640625 C151.005859,74.640625 149.248047,73.3125 148.837891,70.7929688 L148.837891,70.7929688 L142.451172,77.0039062 C142.138672,77.2773438 141.826172,77.4726562 141.474609,77.4726562 C140.986328,77.4726562 140.673828,77.1210938 140.673828,76.5546875 L140.673828,76.5546875 L140.673828,71.0078125 L138.193359,71.0078125 C134.052734,71.0078125 131.787109,68.7617188 131.787109,64.640625 L131.787109,64.640625 L131.787109,48.6054688 C131.787109,44.484375 134.052734,42.21875 138.193359,42.21875 L138.193359,42.21875 Z M172.861328,52.8828125 L154.091797,52.8828125 C151.240234,52.8828125 149.794922,54.3476562 149.794922,57.1796875 L149.794922,57.1796875 L149.775391,69.3671875 C149.775391,72.2382812 151.240234,73.6445312 154.091797,73.6445312 L154.091797,73.6445312 L164.384766,73.6445312 C164.814453,73.6445312 165.048828,73.7226562 165.439453,74.0742188 L165.439453,74.0742188 L170.537109,78.5273438 L170.537109,74.1328125 C170.537109,73.8007812 170.751953,73.6445312 171.044922,73.6445312 L171.044922,73.6445312 L172.861328,73.6445312 C175.712891,73.6445312 177.177734,72.1992188 177.177734,69.328125 L177.177734,69.328125 L177.177734,57.1796875 C177.177734,54.3476562 175.732422,52.8828125 172.861328,52.8828125 L172.861328,52.8828125 Z M162.431641,43.234375 L138.427734,43.234375 C134.736328,43.234375 132.841797,45.1484375 132.841797,48.8398438 L132.841797,48.8398438 L132.841797,64.40625 C132.841797,68.0976562 134.697266,70.0117188 138.427734,70.0117188 L138.427734,70.0117188 L141.142578,70.0117188 C141.474609,70.0117188 141.708984,70.2460938 141.708984,70.6171875 L141.708984,70.6171875 L141.708984,76.2617188 L148.740234,69.4453125 L148.740234,57.0039062 C148.740234,53.703125 150.576172,51.8671875 153.896484,51.8671875 L153.896484,51.8671875 L168.017578,51.8671875 L168.017578,48.8398438 C168.017578,45.1484375 166.142578,43.234375 162.431641,43.234375 L162.431641,43.234375 Z" id="Combined-Shape" fill="#000000" fill-rule="nonzero"></path>
                </g>
            </g>
        </g>
    </g>
</svg>