<?xml version="1.0" encoding="UTF-8"?>
<svg width="30px" height="30px" viewBox="0 0 30 30" version="1.1" xmlns="http://www.w3.org/2000/svg" xmlns:xlink="http://www.w3.org/1999/xlink">
    <!-- Generator: Sketch 61 (89581) - https://sketch.com -->
    <title>earth-grid-symbol</title>
    <desc>Created with Sketch.</desc>
    <defs>
        <rect id="path-1" x="0" y="0" width="375" height="455"></rect>
    </defs>
    <g id="Mobile" stroke="none" stroke-width="1" fill="none" fill-rule="evenodd">
        <g id="oos_main_mobile-copy" transform="translate(-25.000000, -1262.000000)">
            <g id="Group-2" transform="translate(0.000000, 966.000000)">
                <g id="Group">
                    <mask id="mask-2" fill="white">
                        <use xlink:href="#path-1"></use>
                    </mask>
                    <use id="Mask" fill="#000000" xlink:href="#path-1"></use>
                    <g opacity="0.07" mask="url(#mask-2)" font-family="CircularStd-Book, Circular Std" font-size="38.0591202" font-weight="300">
                        <g transform="translate(-1.000000, -139.000000)">
                            <text id="ø-ø-ø-ø-ø-ø-ø-ø-ø-ø-copy-16">
                                <tspan x="8.66595781" y="449.884256" fill="#FFFFFF">ø ø ø ø ø ø ø ø ø ø ø ø ø ø ø ø ø ø ø ø ø ø ø ø ø ø ø ø ø ø ø ø ø ø ø ø ø ø ø ø ø ø ø ø ø ø ø ø</tspan>
                            </text>
                            <text id="ø-ø-ø-ø-ø-ø-ø-ø-ø-ø-copy-17">
                                <tspan x="8.66595781" y="498.938233" fill="#FFFFFF">ø ø ø ø ø ø ø ø ø ø ø ø ø ø ø ø ø ø ø ø ø ø ø ø ø ø ø ø ø ø ø ø ø ø ø ø ø ø ø ø ø ø ø ø ø ø ø ø</tspan>
                            </text>
                            <text id="ø-ø-ø-ø-ø-ø-ø-ø-ø-ø-copy-23">
                                <tspan x="21.727425" y="425.357268" fill="#FFFFFF">ø ø ø ø ø ø ø ø ø ø ø ø ø ø ø ø ø ø ø ø ø ø ø ø ø ø ø ø ø ø ø ø ø ø ø ø ø ø ø ø ø ø ø ø ø ø ø ø</tspan>
                            </text>
                            <text id="ø-ø-ø-ø-ø-ø-ø-ø-ø-ø-copy-24">
                                <tspan x="21.727425" y="474.411245" fill="#FFFFFF">ø ø ø ø ø ø ø ø ø ø ø ø ø ø ø ø ø ø ø ø ø ø ø ø ø ø ø ø ø ø ø ø ø ø ø ø ø ø ø ø ø ø ø ø ø ø ø ø</tspan>
                            </text>
                        </g>
                    </g>
                </g>
                <g id="earth-grid-symbol" transform="translate(25.000000, 296.000000)" fill="#FFFFFF" fill-rule="nonzero">
                    <path d="M27.1028571,6.31836735 C26.8757143,5.99755102 26.6387755,5.68469388 26.3865306,5.38346939 C23.6473469,2.09632653 19.525102,0 14.9228571,0 C14.9142857,0 14.907551,0.000612244898 14.9002041,0.000612244898 C14.8953061,0.000612244898 14.8916327,0 14.8867347,0 C14.8702041,0 14.8530612,0.00183673469 14.8353061,0.00183673469 C10.2679592,0.0281632653 6.18183673,2.11836735 3.45857143,5.38346939 C3.20755102,5.68530612 2.96938776,5.99755102 2.7422449,6.31836735 C1.01816327,8.75204082 0,11.7195918 0,14.9228571 C0,18.1255102 1.01755102,21.0942857 2.7422449,23.5273469 C2.96938776,23.8481633 3.20755102,24.1610204 3.45857143,24.4622449 C6.18122449,27.7273469 10.2673469,29.817551 14.8353061,29.8438776 C14.8530612,29.8438776 14.8702041,29.8457143 14.8867347,29.8457143 C14.8916327,29.8457143 14.8953061,29.845102 14.8995918,29.845102 C14.9069388,29.845102 14.9136735,29.8457143 14.9222449,29.8457143 C19.525102,29.8457143 23.6467347,27.75 26.3865306,24.4628571 C26.637551,24.1616327 26.8757143,23.8481633 27.1028571,23.5273469 C28.8269388,21.0936735 29.845102,18.1261224 29.845102,14.9222449 C29.845102,11.7202041 28.8269388,8.75204082 27.1028571,6.31836735 Z M10.5606122,1.94081633 C9.18918367,3.26387755 8.04918367,5.19795918 7.26367347,7.51897959 C6.21122449,7.12591837 5.26408163,6.65265306 4.44734694,6.11755102 C6.04836735,4.21591837 8.15387755,2.75142857 10.5606122,1.94081633 Z M3.72857143,7.05367347 C4.65673469,7.67326531 5.72938776,8.21510204 6.91530612,8.66142857 C6.40346939,10.5312245 6.10959184,12.6067347 6.09857143,14.7967347 L1.22693878,14.7967347 C1.25326531,11.9161224 2.18081633,9.25040816 3.72857143,7.05367347 Z M1.27285714,16.0212245 L6.12244898,16.0212245 C6.20142857,17.8542857 6.48,19.5936735 6.91408163,21.184898 C5.72755102,21.6312245 4.6555102,22.1730612 3.72857143,22.7932653 C2.35653061,20.8457143 1.47183673,18.5302041 1.27285714,16.0212245 Z M4.45102041,23.7257143 C5.2677551,23.1918367 6.21244898,22.7197959 7.26244898,22.3267347 C8.04795918,24.6483673 9.18857143,26.5812245 10.5606122,27.9042857 C8.15387755,27.0942857 6.05265306,25.6267347 4.45102041,23.7257143 Z M14.3106122,28.5771429 C11.7979592,28.2330612 9.62938776,25.6561224 8.4,21.9446939 C10.172449,21.4132653 12.1787755,21.0912245 14.3106122,21.0391837 L14.3106122,28.5771429 Z M14.3106122,19.8159184 C12.062449,19.8697959 9.94346939,20.2169388 8.05653061,20.7961224 C7.67020408,19.3291837 7.42285714,17.7195918 7.34877551,16.0218367 L14.3106122,16.0218367 L14.3106122,19.8159184 Z M14.3106122,14.7967347 L7.32306122,14.7967347 C7.33408163,12.7402041 7.60163265,10.797551 8.06204082,9.05142857 C9.94653061,9.62877551 12.0642857,9.97653061 14.31,10.0297959 L14.31,14.7967347 L14.3106122,14.7967347 Z M14.3106122,8.80653061 C12.18,8.7544898 10.1742857,8.43367347 8.40367347,7.9022449 C9.63244898,4.19265306 11.7991837,1.61326531 14.3106122,1.26857143 L14.3106122,8.80653061 Z M28.6169388,14.7967347 L23.674898,14.7967347 C23.6638776,12.6159184 23.3736735,10.5489796 22.8655102,8.68591837 C24.0777551,8.23530612 25.1730612,7.68489796 26.1165306,7.05428571 C27.6636735,9.25102041 28.5906122,11.9161224 28.6169388,14.7967347 Z M25.3965306,6.11877551 C24.5632653,6.66428571 23.5946939,7.14489796 22.5171429,7.5422449 C21.7242857,5.18938776 20.5677551,3.23204082 19.174898,1.90408163 C21.6263265,2.70673469 23.7704082,4.1877551 25.3965306,6.11877551 Z M15.535102,1.2777551 C18.0202041,1.66163265 20.1606122,4.23612245 21.3765306,7.92061224 C19.622449,8.44040816 17.6393878,8.75510204 15.535102,8.80653061 L15.535102,1.2777551 Z M15.535102,10.0304082 C17.7544898,9.9777551 19.8483673,9.63734694 21.7163265,9.0722449 C22.1742857,10.8134694 22.44,12.7487755 22.4504082,14.7973469 L15.535102,14.7973469 L15.535102,10.0304082 Z M15.535102,16.0212245 L22.4253061,16.0212245 C22.3512245,17.7110204 22.105102,19.3132653 21.722449,20.7759184 C19.8520408,20.2089796 17.7557143,19.8691837 15.5363265,19.8159184 L15.535102,16.0212245 L15.535102,16.0212245 Z M15.535102,28.5679592 L15.535102,21.0397959 C17.6406122,21.0912245 19.6236735,21.4059184 21.3802041,21.9257143 C20.162449,25.6114286 18.0195918,28.1840816 15.535102,28.5679592 Z M19.174898,27.9422449 C20.5677551,26.614898 21.7267347,24.6587755 22.5195918,22.3053061 C23.5946939,22.7020408 24.5620408,23.1820408 25.3940816,23.7263265 C23.7679592,25.6567347 21.6263265,27.1389796 19.174898,27.9422449 Z M26.1165306,22.7932653 C25.1730612,22.1626531 24.0777551,21.6110204 22.864898,21.1610204 C23.2946939,19.5765306 23.5708163,17.845102 23.6485714,16.0218367 L28.5716327,16.0218367 C28.3726531,18.5302041 27.4904082,20.8463265 26.1165306,22.7932653 Z" id="Shape"></path>
                </g>
            </g>
        </g>
    </g>
</svg>
